<svg viewBox="0 0 660 290" preserveAspectRatio="xMinYMid meet">

<rect x="-0.01" y="0.03" width="660.03" height="289.94" fill="#E38E48"/>
<g>
	<g>
		<path d="M457.43,100.95c-14.77,15.29-34.24,24.92-52.23,36.23c-17.99,11.31-35.61,25.61-42.83,45.6    c-7.6,21.04-2.01,45.3,10.69,63.72c12.7,18.41,31.72,31.63,51.75,41.6c41.9,20.86,90.62,28.93,136.45,19.44    c45.83-9.5,88.23-37.21,112.63-77.15c24.4-39.94,29.44-91.87,10.29-134.57c-19.15-42.71-63.02-74.04-109.8-75.33    c-25.24-0.69-49.89,8.07-70.11,22.94c-10.13,7.45-19.16,16.38-26.82,26.34C469.54,80.04,466.7,91.36,457.43,100.95z" fill="#F5AD52"/>
	</g>
	<g>
		<g>
			<path d="M651.53,204.71c-20.82,14.62-43.67,20.86-67.83,26.54c-29.85-2.91-59.06-3.52-87.87-1.87     c-1.17,0.07-2.35,0.14-3.52,0.21c2.65-8.59,5.22-17.19,7.77-25.76c40.41-15.39,75.62-37.63,102.94-65.2     c23.05-23.25,41.01-50.44,56.83-78.76c-0.25-0.26-0.49-0.51-0.74-0.77c-15.82,28.36-33.77,55.57-56.81,78.82     c-27.05,27.29-61.87,49.35-101.84,64.68c0.29-0.99,0.59-1.97,0.88-2.96c1.62-5.43,3.23-10.85,4.86-16.26     c16.44-54.67,37.01-115.34,75.24-162.48c-0.41-0.04-0.82-0.07-1.23-0.11c-38.07,47.2-58.58,107.74-74.99,162.29     c-1.63,5.41-3.24,10.83-4.86,16.26c-0.37,1.24-0.74,2.47-1.1,3.71c-8.81,3.34-17.87,6.36-27.15,9.03     c-32.76,9.44-68.49,14.91-108.37,16.54c0.13,0.34,0.25,0.67,0.38,1c39.82-1.65,75.53-7.13,108.27-16.56     c9.05-2.61,17.89-5.54,26.5-8.78c-2.52,8.44-5.05,16.91-7.66,25.37c-38.39,2.53-76.78,9.18-115.79,20.1     c0.22,0.29,0.44,0.58,0.67,0.87c38.68-10.8,76.74-17.39,114.8-19.93c-3.03,9.82-6.16,19.62-9.47,29.36     c-24.05,7.07-48.34,13.71-72.79,19.04c0.42,0.26,0.83,0.52,1.25,0.77c23.89-5.24,47.63-11.73,71.13-18.63     c-4.75,13.92-9.87,27.68-15.58,41.14c-0.86,0.18-1.72,0.36-2.58,0.55c0.7,0.2,1.4,0.4,2.1,0.59c0,0,0.01,0,0.01,0     c0.33,0.09,0.66,0.18,0.98,0.27c0.07-0.18,0.15-0.35,0.22-0.53c52.03-10.93,104.56-18.11,157.37-21.53     c0.57-0.37,1.14-0.75,1.71-1.13c-53.21,3.36-106.16,10.54-158.59,21.52c5.7-13.49,10.82-27.29,15.56-41.23     c14.02-4.12,27.95-8.39,41.78-12.63c5.93-1.82,11.85-3.63,17.75-5.42c11.48-3.49,23.1-6.18,34.34-8.78     c2.57-0.6,5.13-1.19,7.68-1.78c26.07,2.55,52.62,6.85,79.82,12.93c0.23-0.3,0.46-0.59,0.69-0.89     c-26.38-5.91-52.15-10.16-77.47-12.76c23.19-5.53,45.16-11.87,65.3-26.02c16.8-11.8,31.34-25.39,43.14-40.15     c0.06-0.61,0.11-1.23,0.15-1.84C683.51,178.7,668.71,192.64,651.53,204.71z M575.87,233.07c-11.26,2.6-22.89,5.29-34.41,8.8     c-5.9,1.79-11.82,3.61-17.75,5.42c-13.61,4.17-27.3,8.36-41.08,12.42c3.27-9.64,6.36-19.35,9.36-29.07     c1.3-0.08,2.6-0.16,3.9-0.24c27.78-1.59,55.94-1.08,84.69,1.57C579.02,232.34,577.44,232.7,575.87,233.07z M527.35,44.96c1.27-1.61,2.54-3.23,3.81-4.86c4.19-5.35,8.41-10.74,12.78-15.95     c-0.58,0.16-1.16,0.32-1.73,0.48c-4.04,4.87-7.96,9.87-11.85,14.84c-1.28,1.63-2.55,3.25-3.81,4.86     c-46.05,58.39-103.39,109.45-166.83,148.71c-0.07,0.44-0.14,0.88-0.2,1.33C423.35,154.97,481.05,103.67,527.35,44.96z" fill="#78354C"/>
		</g>
	</g>
	<path d="M665.27,196.79c-14.94-0.1-30.1,2.66-44.69-0.57c-16.56-3.66-30.41-14.55-44.42-24.11   c-14.01-9.56-30-18.37-46.9-16.91c-11.24,0.97-21.52,6.12-32.1,9.42c-9.64,3-19.34,0.16-28.45-3.99   c-8.76-3.99-18.63-8.46-27.07-10.71c-14.37-3.83-34.13-5.95-50.17-3.28c-12.69,9.66-23.74,21.35-29.09,36.15   c-3.06,8.47-3.98,17.46-3.16,26.39H684.6c1.18-2.9,2.28-5.83,3.28-8.8C679.81,198.38,671.55,196.83,665.27,196.79z" fill="#78354C"/>
	<g>
		<g>
			<g>
				<path d="M653.01,115.01c1.6-2.62,2.19-5.73,2.43-8.79c0.57-7.06-0.56-14.26-3.25-20.81      c-3.81,5.06-7.69,10.25-9.65,16.28c-1.55,4.78-1.85,10.63,0.51,15.21C645.62,121.89,650.66,118.87,653.01,115.01z M663.04,134.52c3.33-4.16,4.79-9.5,5.92-14.71c-4.73,1.53-9.47,3.33-13.37,6.41      c-2.68,2.11-9.53,9.4-6.02,13.13C653.08,143.09,660.85,137.25,663.04,134.52z M618.59,109.98c1.49,4.81,2.99,9.64,5.24,14.15c0.44,0.89,1.1,2.07,1.92,3.38      c2.39,3.82,6.43,9.88,11.46,10.26c7.68,0.58,4.93-9,2.27-12.83C634.34,117.55,626.03,114.39,618.59,109.98z M656.5,151.36c-2.66,1.58-9.67,7.35-6.95,11.12c2.73,3.77,10.4-0.57,12.69-2.78      c3.48-3.36,5.41-7.99,7.04-12.55C664.85,147.97,660.37,149.05,656.5,151.36z M617.9,137.82c1.7,4.24,3.41,8.5,5.78,12.41c0.47,0.77,1.15,1.8,1.98,2.92c2.45,3.28,6.54,8.46,11.11,8.44      c6.99-0.04,3.8-8.5,1.11-11.77C632.71,143.51,624.96,141.26,617.9,137.82z" fill="#CD7352"/>
			</g>
			<path d="M656.91,157.41c-0.17-0.23-0.49-0.28-0.71-0.12c-3.72,2.68-7.12,5.8-10.1,9.29     c-0.59,0.69-1.07,1.43-1.45,2.23c0.01-4.16-0.09-14.9,0.05-17.25c0.16-2.63,1.39-4.84,2.57-6.65c2.71-4.16,5.93-7.99,9.55-11.38     c0.21-0.19,0.22-0.52,0.02-0.72c-0.19-0.21-0.52-0.22-0.72-0.02c-3.69,3.45-6.95,7.34-9.71,11.57c-0.51,0.79-1.03,1.64-1.48,2.58     c0.68-13.93,1.92-27.97,3.69-41.78c0.04-0.28-0.16-0.54-0.44-0.57c-0.29-0.04-0.54,0.16-0.57,0.44     c-1.73,13.54-2.96,27.3-3.65,40.97c-0.58-2.76-1.52-5.47-2.76-7.87c-2.31-4.46-5.4-8.39-8.11-11.64     c-0.18-0.22-0.5-0.25-0.72-0.07c-0.22,0.18-0.25,0.5-0.07,0.72c2.68,3.21,5.73,7.08,7.99,11.45c2.11,4.08,3.34,9.25,3.31,13.84     c0,0.06,0.04,12.12,0.03,16.19c-0.71-2.42-1.78-4.8-3.17-7.04c-2.42-3.87-5.5-7.2-8.2-9.94c-0.2-0.2-0.52-0.2-0.72-0.01     c-0.2,0.2-0.2,0.52-0.01,0.72c2.66,2.7,5.7,5.98,8.06,9.77c2.31,3.69,3.68,7.77,3.98,11.79c0,0.06,0.02,14.11,0.15,17.08     c0.01,0.27,0.24,0.49,0.51,0.49c0.01,0,0.01,0,0.02,0c0.28-0.01,0.5-0.25,0.49-0.53c-0.14-3.07-0.08-17.75-0.08-17.8     c0.07-2.27,0.82-4.26,2.22-5.89c2.92-3.43,6.26-6.5,9.91-9.12C657.03,157.96,657.08,157.64,656.91,157.41z" fill="#78354C"/>
		</g>
		<g>
			<rect x="635.15" y="179.95" width="17.99" height="45.88" fill="#E38E48"/>
			<g>
				<polygon points="648.99,179.95 647.26,225.83 648.28,225.83 650.01,179.95     " fill="#BB6C2D"/>
				<polygon points="641.21,179.95 642.83,225.83 643.85,225.83 642.23,179.95     " fill="#BB6C2D"/>
				<polygon points="637.68,225.83 638.7,225.83 640.21,179.95 639.18,179.95     " fill="#BB6C2D"/>
			</g>
		</g>
	</g>
	<g>
		<g>
			<g>
				<path d="M549.57,130.24c0,0-4.6,3.02-7.57,3.34c-3.47,0.38-7.28-0.95-10.51,0.88c-1.08,0.61-2.03,1.73-1.88,2.96      c0.15,1.23,1.92,2.07,2.71,1.12c-2.37,2.86-8.75,2.8-5.74,8.67c1.29,2.51,4.24,3.85,7.07,3.86c2.82,0.01,5.53-1.09,8.03-2.41      c3.39-1.79,12.6-7.37,12.6-7.37L549.57,130.24z" fill="#B58980"/>
				<path d="M592.76,75.87c-5.29-0.79-9.75,1.26-11.36,2.02c-5.67,2.7-8.17,7.65-9.22,13.49      c-0.79,4.4-2.83,22.45-5.57,24.42c-8.4,6-21.33,12.51-23.13,13.19c1.8,5.51,5.55,12.01,7.42,17.54      c30.14-13.49,36.7-24.14,36.7-24.14S595.02,75.87,592.76,75.87z" fill="#7CA3D5"/>
				<g>
					<g>
						<path d="M593.71,255.65c-0.62-8.37-1.75-16.36-4.13-24.56c-2.88-0.02-16.84,2.16-16.84,2.16s1.75,4.79,2.09,6.25        c0.58,2.48,0.53,5.11-0.21,7.54c-1.01,3.31-3.26,6.22-6.19,8.07c-0.78,0.49-1.6,0.91-2.46,1.24c-1.58,0.61-3.3,0.96-4.72,1.9        c-1.42,0.94-2.49,2.73-1.89,4.32c0.78,2.08,5.78,2.28,5.78,2.28l28.15,0.01C593.3,264.87,593.99,259.45,593.71,255.65z" fill="#90655F"/>
						<path d="M593.77,259.75c-11.58,0.45-23.32,0.48-34.89,0.1c-0.01,0-0.01,0-0.02,0c-0.27,0-0.5,0.22-0.51,0.49        c-0.01,0.28,0.21,0.52,0.49,0.53c5.34,0.18,10.71,0.26,16.09,0.26c6.3,0,12.61-0.12,18.87-0.36c0.28-0.01,0.5-0.25,0.49-0.53        C594.29,259.96,594.08,259.75,593.77,259.75z" fill="#3C4040"/>
					</g>
					<g>
						<path d="M619.79,257.23c-1.49-1.64-3.41-2.24-3.5-4.86c-0.2-6.08,0-19.38,0-19.38l-17.04,0.46        c0.41-0.02,0.12,17.54,0.11,17.8c-0.03,0.72-0.13,1.44-0.48,2.06c-0.68,1.19-2.2,2.09-3.41,2.73        c-4.72,2.53-3.94,8.83-3.94,8.83h30.47C622.01,264.87,622.5,260.21,619.79,257.23z" fill="#90655F"/>
						<path d="M622.75,260.1c-3.97-4.05-9.49-6.58-15.15-6.93c-3.21-0.2-6.5,0.33-9.31,1.41        c0.38-0.41,0.73-0.89,1.01-1.48c0.76-1.56,0.68-6.39,0.5-13.06c-0.08-2.73-0.15-5.32-0.06-6.69c0.02-0.28-0.2-0.53-0.48-0.54        c-0.31-0.05-0.52,0.2-0.54,0.48c-0.09,1.42-0.02,3.91,0.06,6.78c0.13,4.7,0.32,11.12-0.39,12.58c-0.65,1.32-1.64,2-2.78,2.79        c-0.84,0.58-1.72,1.18-2.51,2.08c-2,2.29-2.3,4.25-2.17,7.51c0.01,0.28,0.24,0.49,0.51,0.49c0.01,0,0.01,0,0.02,0        c0.28-0.01,0.5-0.25,0.49-0.53c-0.11-2.79,0.16-4.32,1.14-5.8c0.05-0.03,0.1-0.07,0.14-0.11c2.71-3.18,8.73-5.25,14.32-4.9        c5.41,0.33,10.69,2.75,14.48,6.62c0.1,0.1,0.23,0.15,0.36,0.15c0.13,0,0.26-0.05,0.36-0.15        C622.94,260.63,622.95,260.31,622.75,260.1z" fill="#3C4040"/>
					</g>
					<path d="M621.14,159.02c0.29-6.72-1.04-34.67-1.79-36.77c-0.52-1.45-25.52-2.51-26.83-2.58       c-7.65-0.42-12.61-0.55-14.95,8.01c-5.78,21.17-13.16,42.06-12.17,64.28c0.76,17.05,7.51,33.28,7.34,50.41       c0-0.08,14.48,1.12,22.72-0.07c-0.01,1.01-0.02,2.01-0.04,3c4.55,0.53,22.1,1.34,25.56,0.06c-0.03-0.29-1.3-13.18-1.29-19.64       c0.01-7.47,0.07-14.95,0.18-22.42C620.09,188.52,620.51,173.77,621.14,159.02z M593.32,215.63c-1.71-6.86-3.48-13.82-3.82-20.9       c-0.08-1.71-0.08-3.42,0.03-5.14c0.24-3.86,1-7.67,1.99-11.41c0.47-1.76,0.98-3.51,1.54-5.25c0.05,0.68,0.09,1.36,0.12,2.05       c0.6,12.13,1.2,23.25,1.8,35.39c0.21,4.29,0.35,8.85,0.43,13.47C594.73,221,593.97,218.24,593.32,215.63z" fill="#938987"/>
					<path d="M590.92,145.41c-0.03-0.28-0.26-0.47-0.56-0.45c-0.28,0.03-0.48,0.28-0.45,0.56       c3.55,33.18,5.21,66.93,4.93,100.29c0,0.28,0.22,0.51,0.51,0.51c0,0,0,0,0,0c0.28,0,0.51-0.23,0.51-0.51       C596.13,212.41,594.47,178.63,590.92,145.41z" fill="#3C4040"/>
				</g>
				<g>
					<path d="M599.77,53.91c-1.45,0.18-2.91,0.76-4.27,1.85c-3.69,2.94-4.46,8.62-1.24,12.41       c4.57,5.39,14.08,4.02,15.56-3.16C611.1,58.82,605.5,53.2,599.77,53.91z" fill="#B58980"/>
					<path d="M611.39,56.66c-1.6-3.47-5.8-6.94-9.8-6.83c-1.84,0.05-3.7,1.22-4.25,2.95c-0.03,0.09-0.06,0.19-0.08,0.29       c-1.31,5.68,7.55,7.64,11.43,7.58c-1.17,2.71-1.22,5.89-0.15,8.64C612.09,66.14,613.38,60.98,611.39,56.66z" fill="#3C4040"/>
				</g>
				<g>
					<path d="M625.9,92.52c-1.66-3.59-3.79-7.05-6.79-9.62c-1.71-1.46-3.72-2.62-5.87-3.27       c-2.46-1.56-5.78-2.05-8.79-2.64c-3.85-0.75-12.66-1.84-14.42-1.02c-3.31,1.54-8.44,11.04-9.98,17.66       c-1.72,7.42-0.69,14.47-1.79,22.19c-0.33,2.32-1.06,9.44-0.57,10.21c1.17,1.83,11.21,3.32,18.74,4       c4.76,0.43,9.61,0.28,14.43-0.18c-0.15,0.72-0.31,1.45-0.49,2.17c-1.09,4.33-3.71,11.47-3.71,11.47s1.8,11.47,10.57,18.67       c6.04-11.71,9.84-19.07,12.6-31.6C632.54,118.24,631.31,104.24,625.9,92.52z" fill="#7CA3D5"/>
					<g>
            <path d="M617.97,162.3c-5.8-5.15-9.75-12.2-11.12-19.84c-0.05-0.28-0.31-0.46-0.59-0.41        c-0.28,0.05-0.46,0.32-0.41,0.59c1.41,7.86,5.47,15.12,11.45,20.42c0.1,0.09,0.22,0.13,0.34,0.13c0.14,0,0.28-0.06,0.38-0.17        C618.2,162.81,618.18,162.49,617.97,162.3z M608.77,135.67c-0.09,0.27,0.05,0.56,0.32,0.65c0.05,0.02,0.11,0.03,0.16,0.03        c0.21,0,0.41-0.13,0.48-0.35c3.92-11.61,3.59-24.63-0.93-36.66c-0.1-0.26-0.39-0.4-0.66-0.3c-0.26,0.1-0.4,0.39-0.3,0.66        C612.29,111.5,612.62,124.28,608.77,135.67z M580.68,91.73c-0.25-0.12-0.56-0.01-0.68,0.25c-1.94,4.2-1.95,8.82-1.96,13.28c0,2.12-0.01,4.12-0.22,6        c-0.59,5.17-0.63,14.86-0.28,15.62c0.09,0.19,0.29,0.32,0.49,0.32c0.07,0,0.13-0.01,0.2-0.04c0.26-0.12,0.38-0.4,0.26-0.65        c-0.2-0.76-0.27-9.64,0.35-15.13c0.22-1.93,0.22-3.96,0.23-6.11c0.01-4.35,0.02-8.86,1.86-12.85        C581.05,92.16,580.93,91.85,580.68,91.73z M605.36,76.46c-0.24-0.14-0.56-0.05-0.7,0.19c-1.82,3.2-3.51,6.19-5.21,9.18        c-1.39,2.45-2.78,4.9-4.24,7.47c-0.69-5.94-0.41-11.9,0.83-17.75c0.06-0.28-0.12-0.55-0.39-0.61        c-0.29-0.07-0.55,0.12-0.61,0.39c-1.37,6.45-1.58,13.05-0.64,19.61c0.03,0.22,0.2,0.39,0.41,0.43        c0.03,0.01,0.06,0.01,0.1,0.01c0.18,0,0.35-0.1,0.44-0.26c1.74-3.07,3.37-5.93,4.99-8.8c1.69-2.99,3.39-5.97,5.21-9.17        C605.69,76.91,605.6,76.6,605.36,76.46z" fill="#3C4040"/>
					</g>
				</g>
			</g>
		</g>
		<g>
			<path d="M542.4,139.6c-1.38-1.22-7.41-2.01-8.97-3.12c-2.82-2,3.43-3.79,2.05-6.25c-0.28-0.51-0.93-0.72-1.5-0.66     c-0.58,0.06-1.11,0.33-1.62,0.61c-1.57,0.83-3.15,1.67-4.73,2.5c-1.23,0.65-2.66,1.78-4.06,1.82     c-3.31,0.11-10.78-3.43-10.78-3.43l-5.51,7.65c0,0,9.69,2.66,12.37,4.27c2.18,1.31,3.85,2.79,6.19,3.82c2.25,1,4,1.48,6.52,2.25     c1.89,0.57,4.21,1.17,4.44-2.35c0.75,0.15,2.72,1.07,3.75-1.12c0.34-0.73,0.37-1.42-0.3-2.32c1.95,0.52,2.78-1.2,2.77-2.26     C543.01,140.5,542.82,139.98,542.4,139.6z M465.39,167.32c-2.83-1.52-21.93,0.94-21.93,0.94s-8.06,22.45-7.17,43.39c0.07,1.57-0.02,34.15-0.02,34.15     l11.1,0.15C447.37,245.95,467.15,168.27,465.39,167.32z M503.73,243.41c-2.5-4.87-13.01-53.92-12.53-70.1c0.29-9.93-29.21-6.46-29.29-5.94     c2.22,24.98,23.34,60.81,26.64,77.01C488.86,245.92,504.13,244.2,503.73,243.41z" fill="#ECCB9D"/>
			<path d="M456,84.4c0,0-8.96-1.63-13.2,0.75c-3.47,1.95-5.64,5.28-7.39,8.85c-3.72,7.61-6.36,15.74-7.84,24.07     c-0.52,2.92-0.79,6.26,1.11,8.55c1.38,1.66,3.58,2.34,5.65,2.93c3.26,0.94,6.51,1.88,9.77,2.82C447.08,133.23,456,84.4,456,84.4z     " fill="#F16F61"/>
			<g>
				<path d="M497.47,188.91c-5.24-17.21-8.54-34.2-15.09-51.1c-1.28-3.31-2.67-6.66-5.06-9.29      c-5.96-6.58-22.63-7.38-29.96-2.96c-5.8,3.49-9.33,10.11-10.56,16.61c-3.24,17.18,5.01,34.06-4.5,50.32      C434.44,192.91,498.4,191.97,497.47,188.91z" fill="#E8ABCD"/>
				<g>
					<g>
						<path d="M493.08,173.27c-1.44,1.59-3.2,3.03-5.21,4.28c-4.37,2.7-9.42,4.21-13.8,5.41        c-13.23,3.62-26.8,5.99-40.47,7.09c-0.17,0.36-0.35,0.71-0.53,1.07c13.94-1.08,27.78-3.49,41.27-7.18        c4.45-1.22,9.58-2.75,14.07-5.52c1.89-1.17,3.56-2.51,4.98-3.99C493.29,174.04,493.19,173.65,493.08,173.27z M437.04,174.82c2.03-0.79,4.04-1.63,6.03-2.49c16.18-0.44,32.17-4.79,46.35-12.73        c-0.09-0.34-0.19-0.67-0.28-1.01c-13.34,7.51-28.32,11.82-43.54,12.62c14.29-6.46,27.72-14.76,39.9-24.67        c-0.11-0.35-0.23-0.69-0.35-1.04c-12.85,10.5-27.11,19.19-42.31,25.81c-1.93,0.05-3.86,0.04-5.79-0.02        c0.01,0.34,0.01,0.68,0.01,1.02c1.1,0.04,2.2,0.06,3.3,0.06c0,0,0.01,0,0.01,0c-1.1,0.46-2.2,0.91-3.31,1.35        C437.06,174.08,437.05,174.45,437.04,174.82z" fill="#F16F61"/>
					</g>
				</g>
			</g>
			<path d="M469.37,64.39c-1-1.5-2.26-2.54-3.64-3.17C460.3,58.71,453,62.49,452.32,69     c-0.79,7.55,8.15,11.9,14.36,8.02C471.05,74.3,472.08,68.45,469.37,64.39z" fill="#ECCB9D"/>
			<path d="M504.12,123.72c-5.09-2.73-9.56-6.7-13.36-11.19c-6.14-7.26-10.51-18.94-16.62-26.03     c-1.8-2.09-4.78-3.83-7.47-3.14c-0.15,0.04-0.3,0.08-0.44,0.13c-3.42-0.32-8.76-0.15-11.06-0.2c-5.33-0.1-10.21,1.87-12.16,7.04     c-2.75,7.31-3.26,15.72-2.21,23.33c0.65,4.69-0.26,11.3,5.82,13.25c3.06,0.98,7.33,1.07,10.55,1.16     c4.13,0.11,14.48-0.15,18.62-0.04c1.37,0.04,1.92-2.18,1.9-5.64c0.15,0.17,0.28,0.33,0.41,0.47c4.46,4.89,9.92,9.28,15.52,12.6     c3.54,2.1,7.26,3.84,11.11,5.17c3.9,1.35,7.56,2.93,11.61,3.83l4.72-13.72C515.88,129.27,509.53,126.62,504.12,123.72z" fill="#F16F61"/>
			<g>
				<path d="M541.25,142.78c-2.78-0.34-5.54-0.98-8.18-1.91c-0.27-0.1-0.56,0.05-0.65,0.31      c-0.09,0.27,0.05,0.56,0.31,0.65c2.72,0.96,5.54,1.62,8.4,1.96c0.02,0,0.04,0,0.06,0c0.26,0,0.48-0.19,0.51-0.45      C541.73,143.07,541.53,142.81,541.25,142.78z M538.15,146.43l-1.22-0.26c-2.18-0.46-4.24-0.89-6.24-1.73c-0.26-0.11-0.56,0.01-0.67,0.27      c-0.11,0.26,0.01,0.56,0.27,0.67c2.09,0.88,4.29,1.34,6.43,1.79l1.21,0.26c0.04,0.01,0.07,0.01,0.11,0.01      c0.24,0,0.45-0.16,0.5-0.4C538.6,146.76,538.43,146.49,538.15,146.43z" fill="#3C4040"/>
			</g>
			<g>
				<path d="M488.28,131.25c-11.35-8.23-19.62-20.22-23.3-33.74c-0.07-0.27-0.35-0.43-0.63-0.36      c-0.27,0.07-0.43,0.35-0.36,0.63c3.74,13.75,12.16,25.93,23.69,34.3c0.09,0.07,0.2,0.1,0.3,0.1c0.16,0,0.31-0.07,0.41-0.21      C488.56,131.74,488.51,131.42,488.28,131.25z M477.15,127.52c-1.85-0.03-6.58-0.02-11.16-0.01c-4.57,0.01-9.3,0.02-11.14-0.02      c-2.43-0.04-5.56-0.21-8.22-1.2c-3.95-1.47-4.21-3.7-4.65-7.39c-0.96-8.15-0.88-15.9,0.25-23.7c0.04-0.28-0.15-0.54-0.43-0.58      c-0.29-0.04-0.54,0.15-0.58,0.43c-1.15,7.88-1.23,15.72-0.25,23.96c0.43,3.66,0.77,6.54,5.31,8.23      c2.81,1.04,6.05,1.22,8.56,1.27c1.85,0.03,6.58,0.02,11.16,0.02c4.57-0.01,9.29-0.02,11.14,0.01c0,0,0.01,0,0.01,0      c0.28,0,0.51-0.22,0.51-0.5C477.66,127.76,477.43,127.53,477.15,127.52z" fill="#3C4040"/>
			</g>
			<path d="M471.6,63.41c-2.4-5.4-9.81-6.28-12.16-5.94c-14.3,2.07-12.17,22.18-16.94,31.91     c-0.94,1.92-2.13,3.72-2.97,5.69c-1.42,3.34-1.38,7.5,0.44,10.68c2.04,3.58,6.66,5.32,10.78,5.18c5.69-0.2,12.4-1.97,14.82-7.63     c2.21-5.18,1.96-11.54,0.84-16.94c-1.33-6.41-3.07-13.19-0.07-19.5C466.07,67.44,474,68.81,471.6,63.41z" fill="#3C4040"/>
			<g>
				<path d="M517.58,258.39c0.75,1.65,0.42,3.01-0.92,5.46c-0.16,0.28-10.02,0.09-10.02,0.09l-13.2-5.55l-1.95,5.34      l-6.19-0.14c0,0-1.71-11.19,2.4-19.59c0.3-0.62,6.34,0.44,16.23-1.66c0.95-0.33,2.49,13.35,4.2,13.34      C510.99,255.67,516.05,255.01,517.58,258.39z" fill="#E8ABCD"/>
			</g>
			<g>
				<path d="M454.67,263.89c-0.21,0.25-9.7,0-9.7,0l-4.53-5.46l0.48,5.46h-8.62c0,0-1.47-11.67,2.64-20.06      c0.3-0.62,3.84-0.2,14.3-0.65c0.95-0.33,0.5,12.57,2.21,12.56C454.31,255.72,458.58,259.14,454.67,263.89z" fill="#E8ABCD"/>
			</g>
			<g>
				<path d="M450.53,247c-5.84,0.39-11.78,0.47-17.64,0.22c-0.3-0.01-0.52,0.21-0.53,0.49      c-0.01,0.28,0.21,0.52,0.49,0.53c2.29,0.1,4.59,0.15,6.89,0.15c3.63,0,7.26-0.12,10.86-0.36c0.28-0.02,0.49-0.26,0.47-0.54      C451.05,247.2,450.83,246.97,450.53,247z M505.97,245.65c-6.7,1.08-13.53,1.54-20.31,1.37c-0.22,0-0.52,0.22-0.52,0.5c-0.01,0.28,0.22,0.52,0.5,0.52      c0.94,0.02,1.88,0.04,2.83,0.04c5.91,0,11.84-0.48,17.67-1.42c0.28-0.05,0.47-0.31,0.42-0.59      C506.51,245.8,506.24,245.61,505.97,245.65z" fill="#3C4040"/>
		</g>
	</g>
</g>
<linearGradient id="SVGID_1_" gradientUnits="userSpaceOnUse" x1="-0.015" y1="933" x2="494.9375" y2="933" gradientTransform="matrix(1 0 0 1 0 -788)">
	<stop offset="0" style="stop-color:#78354C"/>
	<stop offset="1" style="stop-color:#78354C;stop-opacity:0"/>
</linearGradient>
<rect x="-0.01" y="0.03" width="494.95" height="289.94" fill="url(#SVGID_1_)"/>
<g>
	<g>
		<g>
			<g>
				<path d="M31.91,64.87h8.66c4.81,0,7.82,2.64,7.82,6.89c0,4.15-2.98,6.76-7.7,6.76h-3.37v6.8h-5.41      C31.91,85.32,31.91,64.87,31.91,64.87z M40.01,74.22c1.72,0,2.79-0.96,2.79-2.46c0-1.51-1.08-2.46-2.79-2.46h-2.7v4.93      L40.01,74.22L40.01,74.22z M56.88,85.31h-5.41V64.87h9.02c4.81,0,7.82,2.64,7.82,6.89c0,2.74-1.29,4.81-3.54,5.92l4.18,7.63h-5.95      l-3.4-6.8h-2.71V85.31z M59.89,74.28c1.72,0,2.79-0.96,2.79-2.53c0-1.51-1.08-2.46-2.79-2.46h-3.01v4.99H59.89z M70.76,75.12c0-6.22,4.48-10.64,10.61-10.64c6.13,0,10.61,4.42,10.61,10.64S87.49,85.7,81.37,85.7      C75.24,85.7,70.76,81.34,70.76,75.12z M86.3,75.12c0-3.54-2.01-6.02-4.93-6.02s-4.93,2.46-4.93,6.02c0,3.54,2.01,5.95,4.93,5.95      S86.3,78.67,86.3,75.12z M100.04,72.63v12.68h-4.72V64.87h6.25l5.35,12.77l5.2-12.77h6.25v20.44h-4.66V72.48L109,83.42h-4.3      L100.04,72.63z M121.7,75.12c0-6.22,4.48-10.64,10.61-10.64c6.13,0,10.61,4.42,10.61,10.64s-4.48,10.58-10.61,10.58      C126.19,85.7,121.7,81.34,121.7,75.12z M137.24,75.12c0-3.54-2.01-6.02-4.93-6.02s-4.93,2.46-4.93,6.02      c0,3.54,2.01,5.95,4.93,5.95S137.24,78.67,137.24,75.12z M149.71,69.38h-6.07v-4.51h17.73v4.51h-6.07v15.93h-5.59V69.38z M164.33,64.87h14.1v4.48h-8.62v3.45h7.67v4.48h-7.67v3.54h9.11v4.48h-14.58V64.87z M200.6,85.31h-5.68v-7.37l-7.25-13.08h6.31l3.78,8.12l3.76-8.12h6.31l-7.25,13.08v7.37H200.6z M207.42,75.12c0-6.22,4.48-10.64,10.61-10.64c6.13,0,10.61,4.42,10.61,10.64s-4.48,10.58-10.61,10.58      C211.9,85.7,207.42,81.34,207.42,75.12z M222.96,75.12c0-3.54-2.01-6.02-4.93-6.02s-4.93,2.46-4.93,6.02      c0,3.54,2.01,5.95,4.93,5.95S222.96,78.67,222.96,75.12z M244.21,77.23V64.87h5.59V77.2c0,5.41-3.31,8.5-9.11,8.5s-9.11-3.09-9.11-8.5V64.87h5.59v12.35      c0,2.43,1.26,3.82,3.52,3.82C242.95,81.05,244.21,79.66,244.21,77.23z M259.32,85.31h-5.41V64.87h9.02c4.81,0,7.82,2.64,7.82,6.89c0,2.74-1.29,4.81-3.54,5.92l4.18,7.63h-5.95      l-3.4-6.8h-2.71V85.31L259.32,85.31z M262.33,74.28c1.72,0,2.79-0.96,2.79-2.53c0-1.51-1.08-2.46-2.79-2.46h-3v4.99H262.33z M30.73,108.71c0-6.22,4.48-10.64,10.61-10.64c6.13,0,10.61,4.42,10.61,10.64s-4.48,10.58-10.61,10.58      S30.73,114.94,30.73,108.71z M46.27,108.71c0-3.54-2.01-6.02-4.93-6.02s-4.93,2.46-4.93,6.02c0,3.54,2.01,5.95,4.93,5.95      S46.27,112.26,46.27,108.71z M60.7,118.9h-5.41V98.46h9.02c4.81,0,7.82,2.64,7.82,6.89c0,2.74-1.29,4.81-3.54,5.92l4.18,7.63h-5.96      l-3.4-6.8h-2.71L60.7,118.9L60.7,118.9z M63.7,107.87c1.72,0,2.79-0.96,2.79-2.53c0-1.51-1.08-2.46-2.79-2.46h-3v4.99H63.7z M85.4,119.29c-6.58,0-10.82-4.33-10.82-10.64c0-6.31,4.3-10.58,10.82-10.58c3.66,0,6.56,1.39,8.57,4.15      l-4.48,2.62c-0.84-1.35-2.38-2.13-4.15-2.13c-3.21,0-5.08,2.34-5.08,5.95c0,4.03,2.08,6.02,5.92,6.02c0.9,0,1.86-0.18,2.67-0.45      v-3h-3.64v-4.06h8.81v9.35C92.32,118.24,89.06,119.29,85.4,119.29z M110.46,115.08h-7.67l-1.29,3.82h-5.53l7.48-20.44h6.5l7.48,20.44h-5.68L110.46,115.08z M109.06,110.94      l-2.41-7.15l-2.43,7.15H109.06z M125.25,107.12v11.78h-5.14V98.46h5.11l8,11.99V98.46h5.17v20.44h-5.11L125.25,107.12z M142.89,118.9V98.46h5.59v20.44H142.89z M168.41,118.9h-16.62v-4.11l9.4-11.81h-8.78v-4.51h15.63v4.11l-9.44,11.81h9.8L168.41,118.9L168.41,118.9z       M184.46,115.08h-7.67l-1.29,3.82h-5.53l7.48-20.44h6.49l7.48,20.44h-5.68L184.46,115.08z M183.05,110.94      l-2.41-7.15l-2.43,7.15H183.05z M196.96,102.97h-6.07v-4.51h17.73v4.51h-6.07v15.93h-5.59V102.97z M211.57,118.9V98.46h5.59v20.44H211.57z M220.49,108.71c0-6.22,4.48-10.64,10.61-10.64c6.13,0,10.61,4.42,10.61,10.64s-4.48,10.58-10.61,10.58      C224.97,119.29,220.49,114.94,220.49,108.71z M236.03,108.71c0-3.54-2.01-6.02-4.93-6.02s-4.93,2.46-4.93,6.02      c0,3.54,2.01,5.95,4.93,5.95S236.03,112.26,236.03,108.71z M250.18,107.12v11.78h-5.14V98.46h5.11l8,11.99V98.46h5.18v20.44h-5.11L250.18,107.12z M267.16,96.96h4.11v8.99h-4.11V96.96z M273.6,115.98l2.71-3.4c1.63,1.44,3.61,2.31,6.02,2.31c1.63,0,2.58-0.57,2.58-1.68      c0-1.08-0.93-1.63-3.66-2.34l-1.27-0.33c-3.66-0.96-5.65-2.95-5.65-5.98c0-3.94,3.31-6.49,8.03-6.49c3.12,0,6.07,1.2,8.27,3.19      l-2.79,3.52c-1.44-1.23-3.52-2.31-5.44-2.31c-1.59,0-2.5,0.57-2.5,1.59c0,0.96,0.81,1.63,3,2.22l1.53,0.42      c4.39,1.2,6.04,3.33,6.04,6.1c0,3.88-3.21,6.49-8.12,6.49C279.01,119.29,275.85,118.09,273.6,115.98z M310.3,118.9h-9.26V98.46h8.87c4.39,0,7.13,2.05,7.13,5.32c0,2.29-1.26,3.97-3,4.72      c2.31,0.73,3.82,2.5,3.82,4.78C317.84,116.62,314.86,118.9,310.3,118.9z M309.51,106.58c1.32,0,2.13-0.75,2.13-1.96      c0-1.14-0.87-1.89-2.19-1.89h-3.21v3.85C306.23,106.58,309.51,106.58,309.51,106.58z M310.02,114.63c1.35,0,2.29-0.84,2.29-1.98      c0-1.2-0.93-2.05-2.29-2.05h-3.78v4.03C306.24,114.63,310.02,114.63,310.02,114.63z M326.53,118.9h-5.41V98.46h9.02c4.81,0,7.82,2.64,7.82,6.89c0,2.74-1.29,4.81-3.54,5.92l4.18,7.63h-5.95      l-3.4-6.8h-2.71L326.53,118.9L326.53,118.9z M329.53,107.87c1.72,0,2.79-0.96,2.79-2.53c0-1.51-1.08-2.46-2.79-2.46h-3v4.99      H329.53z M354.24,115.08h-7.67l-1.29,3.82h-5.53l7.48-20.44h6.49l7.48,20.44h-5.68L354.24,115.08z M352.82,110.94      l-2.41-7.15l-2.43,7.15H352.82z M369.02,107.12v11.78h-5.14V98.46h5.11l8,11.99V98.46h5.17v20.44h-5.11L369.02,107.12z M386.66,98.46h8.05c6.04,0,10.34,4.21,10.34,10.22c0,6.02-4.3,10.22-10.34,10.22h-8.05V98.46z       M394.72,114.49c2.95,0,4.75-2.31,4.75-5.8s-1.8-5.8-4.75-5.8h-2.55v11.6L394.72,114.49L394.72,114.49z M44.14,144.41v-12.35h5.59v12.32c0,5.41-3.31,8.5-9.11,8.5s-9.11-3.09-9.11-8.5v-12.32h5.59v12.35      c0,2.43,1.26,3.82,3.52,3.82C42.87,148.23,44.14,146.84,44.14,144.41z M52.31,149.58l2.71-3.4c1.63,1.44,3.61,2.31,6.02,2.31c1.63,0,2.58-0.57,2.58-1.68      c0-1.08-0.93-1.63-3.66-2.34l-1.27-0.33c-3.66-0.96-5.65-2.95-5.65-5.98c0-3.94,3.31-6.49,8.03-6.49c3.12,0,6.07,1.2,8.27,3.19      l-2.79,3.52c-1.44-1.23-3.52-2.31-5.44-2.31c-1.59,0-2.5,0.57-2.5,1.59c0,0.96,0.81,1.63,3,2.22l1.53,0.42      c4.39,1.2,6.04,3.33,6.04,6.1c0,3.88-3.21,6.49-8.12,6.49C57.72,152.88,54.56,151.68,52.31,149.58z M72.53,152.5v-20.44h5.59v20.44H72.53z M87.77,140.71v11.78h-5.14v-20.44h5.11l8,11.99v-11.99h5.17v20.44H95.8L87.77,140.71z M115.06,152.88c-6.58,0-10.82-4.33-10.82-10.64s4.3-10.58,10.82-10.58c3.66,0,6.56,1.39,8.57,4.15      l-4.48,2.62c-0.84-1.35-2.38-2.13-4.15-2.13c-3.21,0-5.08,2.34-5.08,5.95c0,4.03,2.08,6.02,5.92,6.02c0.9,0,1.86-0.18,2.67-0.45      v-3h-3.64v-4.06h8.81v9.35C121.98,151.84,118.73,152.88,115.06,152.88z M139.2,136.56h-6.07v-4.51h17.73v4.51h-6.07v15.93h-5.59V136.56z M153.8,132.05h5.59v7.87h6.94v-7.87h5.59v20.44h-5.59v-8h-6.94v8h-5.59V132.05z M176.43,132.05h14.1v4.48h-8.62v3.45h7.67v4.48h-7.67v3.54h9.11v4.48h-14.57L176.43,132.05L176.43,132.05      L176.43,132.05z M201.74,152.5v-20.44h14.37v4.48h-8.78v4.09h7.27v4.48h-7.27v7.39L201.74,152.5L201.74,152.5z M219.2,132.05h14.1v4.48h-8.62v3.45h7.67v4.48h-7.67v3.54h9.11v4.48h-14.57L219.2,132.05L219.2,132.05      L219.2,132.05z M249.94,148.68h-7.67l-1.29,3.82h-5.53l7.48-20.44h6.49l7.48,20.44h-5.68L249.94,148.68z M248.53,144.53      l-2.41-7.15l-2.43,7.15H248.53z M262.44,136.56h-6.07v-4.51h17.73v4.51h-6.07v15.93h-5.59L262.44,136.56L262.44,136.56z M289.29,144.41v-12.35h5.59v12.32c0,5.41-3.31,8.5-9.11,8.5s-9.11-3.09-9.11-8.5v-12.32h5.59v12.35      c0,2.43,1.26,3.82,3.52,3.82C288.02,148.23,289.29,146.84,289.29,144.41z M304.4,152.5H299v-20.44h9.02c4.81,0,7.82,2.64,7.82,6.88c0,2.74-1.29,4.81-3.54,5.92l4.18,7.63h-5.95      l-3.4-6.8h-2.71L304.4,152.5L304.4,152.5z M307.41,141.46c1.72,0,2.79-0.96,2.79-2.53c0-1.51-1.08-2.46-2.79-2.46h-3v4.99 H307.41z M319.46,132.05h14.1v4.48h-8.62v3.45h7.67v4.48h-7.67v3.54h9.11v4.48h-14.57L319.46,132.05L319.46,132.05      L319.46,132.05z M337.55,132.05h8.05c6.04,0,10.34,4.21,10.34,10.22c0,6.02-4.3,10.22-10.34,10.22h-8.05V132.05z       M345.61,148.07c2.95,0,4.75-2.31,4.75-5.8s-1.8-5.8-4.75-5.8h-2.55v11.6L345.61,148.07L345.61,148.07z M31.91,165.64H46v4.48h-8.62v3.45h7.67v4.48h-7.67v3.54h9.11v4.48H31.91V165.64z M54.72,173.4v12.68H50v-20.44h6.25l5.35,12.77l5.19-12.77h6.25v20.44h-4.66v-12.83l-4.72,10.94h-4.3      L54.72,173.4z M77.56,165.64h8.66c4.81,0,7.82,2.64,7.82,6.89c0,4.15-2.98,6.76-7.7,6.76h-3.37v6.8h-5.41      C77.56,186.08,77.56,165.64,77.56,165.64z M85.67,174.99c1.72,0,2.79-0.96,2.79-2.46c0-1.51-1.08-2.46-2.79-2.46h-2.71V175      L85.67,174.99C85.67,175,85.67,174.99,85.67,174.99z M111.22,181.57v4.51h-14.1v-20.44h5.59v15.93L111.22,181.57L111.22,181.57z M112.39,175.9c0-6.23,4.48-10.64,10.61-10.64c6.13,0,10.61,4.42,10.61,10.64s-4.48,10.58-10.61,10.58      C116.86,186.48,112.39,182.11,112.39,175.9z M127.93,175.9c0-3.54-2.01-6.02-4.93-6.02s-4.93,2.46-4.93,6.02      c0,3.55,2.01,5.95,4.93,5.95C125.92,181.85,127.93,179.44,127.93,175.9z M146.11,186.08h-5.68v-7.37l-7.25-13.08h6.31l3.78,8.12l3.76-8.12h6.31l-7.25,13.08v7.37H146.11z M155.9,165.64H170v4.48h-8.62v3.45h7.67v4.48h-7.67v3.54h9.11v4.48h-14.57L155.9,165.64L155.9,165.64      L155.9,165.64z M179.4,186.08H174v-20.44h9.02c4.81,0,7.82,2.64,7.82,6.89c0,2.74-1.29,4.81-3.54,5.92l4.18,7.63h-5.95      l-3.4-6.8h-2.71V186.08z M182.42,175.05c1.72,0,2.79-0.96,2.79-2.53c0-1.51-1.08-2.46-2.79-2.46h-3v4.99H182.42z M201.68,165.64h8.66c4.81,0,7.82,2.64,7.82,6.89c0,4.15-2.98,6.76-7.7,6.76h-3.37v6.8h-5.41L201.68,165.64      L201.68,165.64z M209.79,174.99c1.72,0,2.79-0.96,2.79-2.46c0-1.51-1.08-2.46-2.79-2.46h-2.71V175L209.79,174.99L209.79,174.99z M226.66,186.08h-5.41v-20.44h9.02c4.81,0,7.82,2.64,7.82,6.89c0,2.74-1.29,4.81-3.54,5.92l4.18,7.63h-5.95      l-3.4-6.8h-2.71L226.66,186.08L226.66,186.08z M229.66,175.05c1.72,0,2.79-0.96,2.79-2.53c0-1.51-1.08-2.46-2.79-2.46h-3v4.99      H229.66z M240.54,175.9c0-6.23,4.48-10.64,10.61-10.64c6.13,0,10.61,4.42,10.61,10.64s-4.48,10.58-10.61,10.58      C245.01,186.48,240.54,182.11,240.54,175.9z M256.08,175.9c0-3.54-2.01-6.02-4.93-6.02s-4.93,2.46-4.93,6.02      c0,3.55,2.01,5.95,4.93,5.95S256.08,179.44,256.08,175.9z M265.09,186.08v-20.44h14.37v4.48h-8.78v4.09h7.27v4.48h-7.27v7.39L265.09,186.08L265.09,186.08z M282.56,186.08v-20.44h5.59v20.44H282.56z M306.76,181.57v4.51h-14.1v-20.44h5.59v15.93L306.76,181.57L306.76,181.57z M309.69,165.64h14.1v4.48h-8.62v3.45h7.67v4.48h-7.67v3.54h9.11v4.48H309.7L309.69,165.64L309.69,165.64      L309.69,165.64z M327.46,183.38c0-1.63,1.32-2.98,3-2.98c1.65,0,3,1.35,3,2.98c0,1.65-1.35,3-3,3      C328.78,186.38,327.46,185.03,327.46,183.38z M327.67,165.64h5.59l-0.61,13.83h-4.39L327.67,165.64z" fill="#FFFFFF"/>
			</g>
		</g>
	</g>
	<rect x="29.74" y="210.29" width="210.71" height="43.23" fill="#F5AD52"/>
	<g>
		<path d="M60.87,235.48v2.17h-7.7v-11.69h2.65v9.53L60.87,235.48L60.87,235.48z M66.66,237.85c-3.01,0-4.83-1.86-4.83-4.56c0-2.68,1.87-4.57,4.49-4.57c2.6,0,4.42,1.77,4.42,4.44    c0,0.29-0.02,0.6-0.09,0.86h-6.31c0.24,1.2,1.12,1.86,2.51,1.86c1.1,0,1.96-0.46,2.53-0.86l1.01,1.63    C69.52,237.32,68.12,237.85,66.66,237.85z M64.32,232.4h3.94c-0.17-1.22-0.93-1.72-1.89-1.72    C65.3,230.68,64.56,231.27,64.32,232.4z M76,237.85c-1.7,0-2.79-1.07-2.79-2.75v-4.25h-1.5v-1.93h1.58l0.34-2.41h2.06v2.41h2.34v1.93H75.7v3.94    c0,0.64,0.38,0.98,1.01,0.98c0.34,0,0.71-0.17,1-0.33l0.77,1.67C77.85,237.54,76.96,237.85,76,237.85z M79.93,225.09h2v4.83h-2V225.09z M83.2,236.48l1.15-1.46c0.83,0.67,1.72,1.03,2.72,1.03c0.72,0,1.22-0.21,1.22-0.74    c0-0.48-0.38-0.79-1.43-1.03l-0.95-0.22c-1.67-0.4-2.46-1.32-2.46-2.56c0-1.7,1.51-2.77,3.65-2.77c1.43,0,2.72,0.48,3.73,1.34    l-1.15,1.46c-0.83-0.65-1.74-1.01-2.58-1.01c-0.74,0-1.19,0.33-1.19,0.79c0,0.46,0.43,0.69,1.2,0.89l1.1,0.29    c1.77,0.46,2.53,1.38,2.53,2.58c0,1.72-1.51,2.79-3.71,2.79C85.54,237.85,84.23,237.35,83.2,236.48z M96.13,233.28c0-2.7,1.87-4.54,4.51-4.54c1.51,0,2.67,0.53,3.53,1.72l-1.67,1.26    c-0.4-0.55-1.01-0.89-1.72-0.89c-1.22,0-2.06,0.96-2.06,2.46c0,1.51,0.86,2.49,2.06,2.49c0.74,0,1.31-0.34,1.72-0.89l1.69,1.27    c-0.88,1.15-2.05,1.7-3.54,1.7C98,237.85,96.13,236,96.13,233.28z M105.09,233.28c0-2.67,1.94-4.56,4.66-4.56s4.66,1.89,4.66,4.56c0,2.68-1.94,4.57-4.66,4.57    S105.09,235.96,105.09,233.28z M111.86,233.28c0-1.53-0.86-2.53-2.12-2.53c-1.27,0-2.12,1-2.12,2.53s0.84,2.54,2.12,2.54    C111,235.82,111.86,234.81,111.86,233.28z M118.69,237.65h-2.49v-8.72h2.27l0.14,1.22c0.58-0.86,1.58-1.43,2.72-1.43c1.93,0,3.18,1.31,3.18,3.63v5.3    h-2.49v-5.09c0-1.17-0.58-1.77-1.56-1.77c-1.01,0-1.75,0.69-1.75,2.05v4.81H118.69L118.69,237.65z M129.18,237.65h-2.49v-8.72h2.27l0.14,1.22c0.58-0.86,1.58-1.43,2.72-1.43c1.93,0,3.18,1.31,3.18,3.63v5.3    h-2.49v-5.09c0-1.17-0.58-1.77-1.56-1.77c-1.01,0-1.75,0.69-1.75,2.05v4.81H129.18L129.18,237.65z M141.45,237.85c-3.01,0-4.83-1.86-4.83-4.56c0-2.68,1.87-4.57,4.49-4.57c2.6,0,4.42,1.77,4.42,4.44    c0,0.29-0.02,0.6-0.09,0.86h-6.31c0.24,1.2,1.12,1.86,2.51,1.86c1.1,0,1.96-0.46,2.53-0.86l1.01,1.63    C144.31,237.32,142.91,237.85,141.45,237.85z M139.11,232.4h3.94c-0.17-1.22-0.93-1.72-1.89-1.72    C140.09,230.68,139.35,231.27,139.11,232.4z M146.75,233.28c0-2.7,1.87-4.54,4.51-4.54c1.51,0,2.67,0.53,3.53,1.72l-1.67,1.26    c-0.4-0.55-1.01-0.89-1.72-0.89c-1.22,0-2.06,0.96-2.06,2.46c0,1.51,0.86,2.49,2.06,2.49c0.74,0,1.31-0.34,1.72-0.89l1.69,1.27    c-0.88,1.15-2.05,1.7-3.54,1.7C148.62,237.85,146.75,236,146.75,233.28z M159.83,237.85c-1.7,0-2.79-1.07-2.79-2.75v-4.25h-1.5v-1.93h1.58l0.34-2.41h2.06v2.41h2.34v1.93h-2.34v3.94    c0,0.64,0.38,0.98,1.01,0.98c0.34,0,0.71-0.17,1-0.33l0.77,1.67C161.69,237.54,160.8,237.85,159.83,237.85z M171.52,237.85c-1.7,0-2.79-1.07-2.79-2.75v-4.25h-1.5v-1.93h1.58l0.34-2.41h2.06v2.41h2.34v1.93h-2.34v3.94    c0,0.64,0.38,0.98,1.01,0.98c0.34,0,0.71-0.17,1-0.33l0.77,1.67C173.38,237.54,172.49,237.85,171.52,237.85z M174.82,233.28c0-2.67,1.94-4.56,4.66-4.56s4.66,1.89,4.66,4.56c0,2.68-1.94,4.57-4.66,4.57    C176.77,237.85,174.82,235.96,174.82,233.28z M181.6,233.28c0-1.53-0.86-2.53-2.12-2.53c-1.27,0-2.12,1-2.12,2.53    s0.84,2.54,2.12,2.54C180.74,235.82,181.6,234.81,181.6,233.28z M192.17,236.43c-0.6,0.89-1.55,1.43-2.73,1.43c-2.39,0-4.06-1.89-4.06-4.57c0-2.68,1.65-4.56,4.01-4.56    c1.1,0,2.06,0.48,2.7,1.31v-4.94h2.49v12.55h-2.27L192.17,236.43z M192.14,233.28c0-1.53-0.86-2.54-2.12-2.54s-2.1,1.03-2.1,2.54    c0,1.53,0.84,2.54,2.1,2.54C191.3,235.82,192.14,234.81,192.14,233.28z M201.94,236.39c-0.6,0.98-1.51,1.46-2.77,1.46c-1.62,0-2.84-1.05-2.84-2.63c0-1.89,1.6-3.03,4.11-3.03    c0.5,0,1.01,0.05,1.51,0.14c-0.09-1.14-0.86-1.63-1.96-1.63c-0.88,0-1.77,0.36-2.54,0.83l-0.88-1.65c1.12-0.72,2.41-1.15,3.7-1.15    c2.36,0,4.08,1.2,4.08,3.78v5.14h-2.27L201.94,236.39z M200.05,235.96c1.1,0,1.91-0.79,1.91-1.91v-0.19    c-0.38-0.07-0.84-0.14-1.26-0.14c-1.15,0-1.91,0.38-1.91,1.19C198.79,235.53,199.27,235.96,200.05,235.96z M207.51,240.97c-0.86,0-1.6-0.22-2.05-0.48l0.74-1.79c0.29,0.16,0.65,0.29,1.1,0.29    c0.64,0,1.17-0.28,1.51-1.08l0.24-0.53l-3.89-8.44h2.72l2.27,5.73l1.94-5.73h2.68l-3.39,8.56    C210.47,239.87,209.3,240.97,207.51,240.97z" fill="#78354C"/>
	</g>
</g>
</svg>